<svg width="136" height="42" viewBox="0 0 136 42" fill="none" xmlns="http://www.w3.org/2000/svg">
<path d="M46.509 33H42.5689L48.5725 15.6092H53.3108L59.3058 33H55.3657L51.0096 19.5833H50.8737L46.509 33ZM46.2628 26.1643H55.5695V29.0344H46.2628V26.1643ZM61.4011 33V19.9569H65.0185V33H61.4011ZM63.2183 18.2756C62.6805 18.2756 62.2192 18.0973 61.8342 17.7406C61.4549 17.3783 61.2653 16.9453 61.2653 16.4414C61.2653 15.9433 61.4549 15.5158 61.8342 15.1592C62.2192 14.7969 62.6805 14.6157 63.2183 14.6157C63.7561 14.6157 64.2147 14.7969 64.594 15.1592C64.9789 15.5158 65.1714 15.9433 65.1714 16.4414C65.1714 16.9453 64.9789 17.3783 64.594 17.7406C64.2147 18.0973 63.7561 18.2756 63.2183 18.2756ZM72.7225 33.2123C71.7318 33.2123 70.8346 32.9575 70.0307 32.448C69.2325 31.9329 68.5985 31.1771 68.1286 30.1808C67.6644 29.1788 67.4323 27.9503 67.4323 26.4955C67.4323 25.0009 67.6729 23.7583 68.1541 22.7676C68.6352 21.7713 69.2749 21.0269 70.0732 20.5344C70.877 20.0362 71.7573 19.7871 72.714 19.7871C73.4443 19.7871 74.0529 19.9116 74.5397 20.1607C75.0322 20.4042 75.4285 20.7099 75.7285 21.0778C76.0342 21.4401 76.2663 21.7968 76.4249 22.1478H76.5352V15.6092H80.1442V33H76.5777V30.9111H76.4249C76.255 31.2734 76.0144 31.6329 75.7031 31.9895C75.3974 32.3405 74.9983 32.632 74.5058 32.8641C74.0189 33.0962 73.4245 33.2123 72.7225 33.2123ZM73.8689 30.3336C74.452 30.3336 74.9445 30.1751 75.3464 29.8581C75.754 29.5354 76.0654 29.0854 76.2805 28.508C76.5013 27.9305 76.6117 27.254 76.6117 26.4785C76.6117 25.7029 76.5041 25.0292 76.289 24.4575C76.0739 23.8857 75.7625 23.4441 75.3549 23.1328C74.9473 22.8214 74.452 22.6657 73.8689 22.6657C73.2745 22.6657 72.7735 22.8271 72.3659 23.1498C71.9583 23.4724 71.6498 23.9197 71.4403 24.4914C71.2308 25.0632 71.1261 25.7255 71.1261 26.4785C71.1261 27.237 71.2308 27.9079 71.4403 28.491C71.6554 29.0684 71.9639 29.5213 72.3659 29.8496C72.7735 30.1723 73.2745 30.3336 73.8689 30.3336ZM90.1324 19.9569V22.6742H82.0824V19.9569H90.1324ZM83.925 33V19.0144C83.925 18.069 84.109 17.2849 84.477 16.6622C84.8506 16.0395 85.3601 15.5725 86.0055 15.2611C86.6508 14.9497 87.3839 14.7941 88.2048 14.7941C88.7596 14.7941 89.2662 14.8365 89.7248 14.9214C90.189 15.0063 90.5343 15.0828 90.7608 15.1507L90.1154 17.868C89.9739 17.8227 89.7984 17.7803 89.5889 17.7406C89.3851 17.701 89.1757 17.6812 88.9605 17.6812C88.4284 17.6812 88.0576 17.8057 87.8482 18.0548C87.6387 18.2982 87.534 18.6407 87.534 19.0823V33H83.925ZM100.707 27.4465V19.9569H104.324V33H100.851V30.6308H100.715C100.421 31.3951 99.931 32.0093 99.246 32.4735C98.5666 32.9377 97.7373 33.1698 96.7579 33.1698C95.8861 33.1698 95.1191 32.9717 94.4567 32.5754C93.7944 32.1791 93.2764 31.6159 92.9028 30.8856C92.5348 30.1553 92.348 29.2807 92.3423 28.2617V19.9569H95.9597V27.6163C95.9654 28.3862 96.172 28.9948 96.5796 29.442C96.9872 29.8893 97.5335 30.1129 98.2185 30.1129C98.6544 30.1129 99.062 30.0138 99.4413 29.8157C99.8206 29.6119 100.126 29.3118 100.358 28.9156C100.596 28.5193 100.712 28.0296 100.707 27.4465ZM110.835 25.4595V33H107.217V19.9569H110.665V22.2582H110.818C111.107 21.4996 111.591 20.8995 112.27 20.4579C112.949 20.0107 113.773 19.7871 114.741 19.7871C115.647 19.7871 116.436 19.9852 117.11 20.3815C117.784 20.7778 118.307 21.3439 118.681 22.0798C119.055 22.8101 119.242 23.6819 119.242 24.6952V33H115.624V25.3406C115.63 24.5424 115.426 23.9197 115.013 23.4724C114.599 23.0196 114.031 22.7931 113.306 22.7931C112.819 22.7931 112.389 22.8979 112.015 23.1073C111.647 23.3168 111.359 23.6225 111.149 24.0244C110.945 24.4207 110.841 24.899 110.835 25.4595ZM126.899 33.2123C125.908 33.2123 125.011 32.9575 124.207 32.448C123.409 31.9329 122.775 31.1771 122.305 30.1808C121.841 29.1788 121.609 27.9503 121.609 26.4955C121.609 25.0009 121.849 23.7583 122.33 22.7676C122.812 21.7713 123.451 21.0269 124.249 20.5344C125.053 20.0362 125.934 19.7871 126.89 19.7871C127.621 19.7871 128.229 19.9116 128.716 20.1607C129.209 20.4042 129.605 20.7099 129.905 21.0778C130.211 21.4401 130.443 21.7968 130.601 22.1478H130.712V15.6092H134.32V33H130.754V30.9111H130.601C130.431 31.2734 130.191 31.6329 129.879 31.9895C129.574 32.3405 129.175 32.632 128.682 32.8641C128.195 33.0962 127.601 33.2123 126.899 33.2123ZM128.045 30.3336C128.628 30.3336 129.121 30.1751 129.523 29.8581C129.93 29.5354 130.242 29.0854 130.457 28.508C130.678 27.9305 130.788 27.254 130.788 26.4785C130.788 25.7029 130.68 25.0292 130.465 24.4575C130.25 23.8857 129.939 23.4441 129.531 23.1328C129.124 22.8214 128.628 22.6657 128.045 22.6657C127.451 22.6657 126.95 22.8271 126.542 23.1498C126.135 23.4724 125.826 23.9197 125.617 24.4914C125.407 25.0632 125.302 25.7255 125.302 26.4785C125.302 27.237 125.407 27.9079 125.617 28.491C125.832 29.0684 126.14 29.5213 126.542 29.8496C126.95 30.1723 127.451 30.3336 128.045 30.3336Z" fill="#161616"/>
<path d="M11.7971 10.0493L11.9408 10.095L12.029 10.3595C12.1106 10.6076 12.202 10.859 12.2934 11.1039L12.3685 11.3031C12.4175 11.4403 12.4698 11.5741 12.5187 11.708L12.5938 11.9072L12.6591 12.0835C12.7114 12.2631 12.7179 12.4165 12.7081 12.6027H12.8485V12.7398H12.7081L12.695 12.8573C12.6167 13.0859 12.46 13.2002 12.2902 13.3667C12.2379 13.4516 12.1889 13.5332 12.1432 13.6214C12.0322 13.8173 11.9539 13.912 11.8037 14.0655C11.7318 14.1863 11.66 14.3103 11.5914 14.4344C11.5098 14.5748 11.4118 14.6989 11.3139 14.8295L11.2453 15.0385H11.1049L11.0886 15.1887C11.0233 15.4336 10.8992 15.5936 10.7588 15.8058C10.7033 15.9397 10.6543 16.0735 10.6086 16.2107C10.5433 16.3805 10.4617 16.5372 10.38 16.6972C10.1645 17.1184 10.1645 17.1184 9.92291 17.8269H15.2158V14.6924H17.0965L17.1651 17.8269C18.0467 17.8204 18.0467 17.8204 18.9283 17.8139H19.2613L19.4344 17.8106C19.6662 17.8106 19.8425 17.8106 20.0613 17.8955L20.1625 17.9641C20.0384 18.3918 19.9078 18.8065 19.7446 19.2179L19.6858 19.3877L19.6042 19.4987C19.3005 19.564 19.0132 19.5738 18.703 19.5738H18.432L18.1512 19.5705C18.0532 19.5705 17.9585 19.5705 17.8638 19.5705C17.632 19.5705 17.4002 19.5673 17.1651 19.5673V19.6816C17.1683 20.6056 17.1683 21.5296 17.1683 22.4504C17.1716 22.8977 17.1716 23.3451 17.1716 23.7924C17.1716 24.2201 17.1716 24.6511 17.1716 25.0822C17.1716 25.2454 17.1716 25.4119 17.1749 25.5752C17.1749 25.807 17.1749 26.0356 17.1749 26.2641V26.8258L17.1651 26.9498L17.0965 27.0217C16.9626 27.0282 16.8288 27.0282 16.6949 27.0282H16.4467L16.1855 27.0249H15.9243C15.7121 27.0217 15.4998 27.0217 15.2843 27.0217L15.2158 26.5319L8.59725 26.6037C8.59399 27.6323 8.59399 27.6323 8.6495 28.6543L8.66909 28.8534C8.73113 29.5097 8.86826 30.1399 9.0152 30.7831H7.06589C6.83079 30.0779 6.83079 30.0779 6.79488 29.7905L6.76876 29.6012L6.74263 29.4052L6.71651 29.2028C6.6055 28.3049 6.57938 27.4461 6.57938 26.5319L2.11915 26.6037C2.11915 27.7955 2.23669 29.0167 2.68729 30.1366C2.81789 30.4795 2.88973 30.8387 2.95503 31.2011H3.09543L3.13135 31.3219L3.18359 31.4884L3.23257 31.6484C3.33053 31.89 3.40563 32.05 3.58195 32.2459C3.8301 32.3047 4.06846 32.2917 4.32314 32.2819L4.53864 32.2786C4.77047 32.2753 4.99903 32.2688 5.22759 32.2623C5.45942 32.2557 5.68798 32.2525 5.91981 32.2492C6.06348 32.2459 6.20715 32.2427 6.34755 32.2394L6.54346 32.2361L6.71651 32.2296L6.85692 32.2459L6.99732 32.3831C7.01364 32.5463 7.01364 32.5463 7.01038 32.7488L7.00711 32.9675L7.00385 33.1928V33.4247C7.00058 33.6108 7.00058 33.8002 6.99732 33.9863L6.80794 33.9928C6.57938 33.9993 6.34755 34.0059 6.11899 34.0124C6.01777 34.0157 5.91981 34.0189 5.82185 34.0222C5.67819 34.0255 5.53452 34.0287 5.39085 34.0353L5.12964 34.0418C4.95005 34.0516 4.79986 34.0744 4.6268 34.1267V34.2638H4.7672C4.8521 34.3781 4.93699 34.4924 5.01536 34.6099C5.26025 34.956 5.52472 35.2466 5.83492 35.534L5.95246 35.6581V35.7985L6.07654 35.854C6.23 35.9356 6.32796 36.014 6.43897 36.1446V36.285L6.71651 36.4254V36.5625L6.82753 36.6115C7.05936 36.7356 7.28465 36.876 7.48383 37.0523V37.1894L7.6275 37.2417C7.86912 37.3461 8.09442 37.48 8.31971 37.6074V32.5235H12.1498C12.2706 32.7618 12.2347 33.0361 12.2347 33.2973L12.2379 33.4998C12.2379 33.7185 12.2412 33.9373 12.2412 34.1528L12.2477 34.6099C12.251 35.0083 12.2542 35.4066 12.2575 35.805C12.2608 36.2099 12.264 36.618 12.2673 37.0229C12.2771 37.8229 12.2836 38.6196 12.2902 39.4195L13.4036 39.6971V29.8069H17.374C17.4687 29.9897 17.4524 30.1301 17.4524 30.3358V31.1554C17.4524 31.4166 17.4524 31.6811 17.4524 31.9423C17.4524 32.2198 17.4524 32.4941 17.4524 32.7684C17.4524 33.2875 17.4491 33.81 17.4491 34.3291C17.4491 34.9234 17.4491 35.5176 17.4491 36.1086C17.4491 37.3298 17.4459 38.5477 17.4459 39.7689L17.632 39.7363L17.8769 39.6971L18.1185 39.6579C18.3144 39.6318 18.5005 39.622 18.6997 39.6285V39.4293C18.6964 37.8457 18.6964 36.2588 18.6964 34.672C18.6932 33.9079 18.6932 33.1406 18.6932 32.3733C18.6932 31.7039 18.6932 31.0378 18.6932 30.3685C18.6932 30.0126 18.6932 29.6599 18.6899 29.3073C18.6899 28.9742 18.6899 28.6412 18.6899 28.3081C18.6899 28.1841 18.6899 28.0633 18.6899 27.9392C18.6899 27.7727 18.6899 27.6061 18.6899 27.4396V27.2927C18.6899 27.1784 18.6932 27.0641 18.6997 26.9498L18.7683 26.8813C18.8858 26.8747 19.0034 26.8715 19.1176 26.8715L19.3462 26.8682H19.8458C20.0221 26.8682 20.1984 26.8682 20.3715 26.8682C20.6425 26.8682 20.9135 26.8682 21.1845 26.8649C21.3543 26.8649 21.5241 26.8649 21.6971 26.8649H22.3698L22.5298 26.8813L22.6702 27.0217C22.6865 27.2143 22.6865 27.2143 22.6865 27.4657V27.6061C22.6865 27.7629 22.6865 27.9163 22.6865 28.0731V28.4061C22.6865 28.7098 22.6832 29.0102 22.6832 29.3138C22.6832 29.6305 22.6832 29.944 22.6832 30.2607C22.6832 30.8582 22.68 31.459 22.68 32.0566C22.6767 32.739 22.6767 33.4181 22.6767 34.1006C22.6734 35.5013 22.6734 36.9021 22.6702 38.3061C22.8465 38.1951 23.0261 38.0841 23.2056 37.9731C23.2807 37.9241 23.2807 37.9241 23.3591 37.8784C23.715 37.6563 24.0579 37.4245 24.3876 37.1633L24.5346 37.049C25.008 36.6801 25.4456 36.2817 25.8733 35.867L26.03 35.7168C26.4055 35.3544 26.732 34.9528 27.0585 34.5446L27.2153 34.3552L27.3361 34.1953V34.0549L27.1206 34.0516C26.8561 34.0451 26.5916 34.0385 26.3272 34.0287C26.2129 34.0255 26.0986 34.0255 25.9843 34.0222C25.8211 34.0157 25.6578 34.0124 25.4913 34.0091L25.3378 34.0059C25.2137 33.9993 25.0897 33.9961 24.9688 33.9863L24.897 33.9177V32.1741H28.7303L28.8675 31.7562C28.9328 31.5929 28.9948 31.4296 29.0601 31.2664C29.638 29.7416 30.0527 28.1024 30.0527 26.4633L29.847 26.4698C29.5858 26.4764 29.3278 26.4862 29.0699 26.4927C28.9589 26.496 28.8479 26.4992 28.7336 26.5025C28.012 26.5254 27.2936 26.5352 26.5688 26.5319V24.7915L30.1213 24.723C29.8535 23.1753 29.8535 23.1753 29.4258 21.67L29.3572 21.448L29.3115 21.3174C29.2723 21.1607 29.2593 21.0529 29.2854 20.8897C29.4356 20.6546 29.625 20.4685 29.8274 20.2758L29.9841 20.1191C30.1213 19.9787 30.2617 19.8415 30.4021 19.7077L30.5098 19.5869L30.6111 19.4987H30.82C30.9017 19.6979 30.9833 19.9003 31.0617 20.1028L31.1335 20.2758C31.3425 20.7982 31.3425 20.7982 31.3065 21.0986H31.4469L31.4927 21.3664C31.5416 21.6113 31.6004 21.8496 31.6657 22.0913C31.8616 22.7835 31.989 23.4496 32.0477 24.1646C32.0641 24.4226 32.0641 24.4226 32.1098 24.5956C32.1555 24.8764 32.1457 25.1507 32.1359 25.4348L32.1326 25.6209C32.1294 25.7515 32.1261 25.8821 32.1228 26.0127C32.1163 26.2086 32.113 26.4078 32.1065 26.607L32.0967 26.9857L32.0934 27.1653C32.0804 27.5996 32.0314 28.0175 31.9433 28.442L31.9073 28.6053C31.8975 28.6608 31.8845 28.7163 31.8714 28.7751L31.8355 28.9514C31.7375 29.402 31.6363 29.8493 31.5155 30.2934L31.4535 30.5481C31.287 31.1815 31.0551 31.7758 30.7939 32.3766L30.6992 32.5921C30.4772 33.0884 30.2127 33.5357 29.9123 33.9863C29.8503 34.0875 29.785 34.1887 29.7229 34.2932L29.638 34.4336C29.5793 34.525 29.5238 34.6197 29.465 34.7112C29.3376 34.9169 29.2136 35.1062 29.0601 35.2956C28.9262 35.4458 28.9262 35.4458 28.8675 35.6581C28.7891 35.7364 28.7107 35.8148 28.6291 35.8931C28.5018 36.027 28.394 36.1674 28.2797 36.3144C27.7377 37.0033 27.0945 37.6139 26.4088 38.1559C26.2814 38.2571 26.1574 38.3616 26.0333 38.4694C24.4627 39.844 22.3894 40.9182 20.3519 41.3786C20.0972 41.4374 19.8523 41.5092 19.6042 41.5876C19.1503 41.7215 18.7062 41.7803 18.2393 41.8292C18.0597 41.8521 17.8965 41.8815 17.7234 41.9272H17.374L17.2434 41.9631C17.0834 41.999 16.943 42.0023 16.7765 41.999L16.5871 41.9958L16.3847 41.9892L16.1725 41.9827C15.9537 41.9794 15.7317 41.9729 15.5129 41.9664L15.0623 41.9566C14.6966 41.9468 14.3276 41.937 13.9619 41.9272V41.7868L13.8215 41.7933C13.3318 41.8031 12.8942 41.7443 12.4208 41.6268L12.2249 41.5811C11.5033 41.4113 10.8208 41.1533 10.1319 40.8823L9.91965 40.8007C9.3711 40.5787 8.84541 40.3175 8.31971 40.0464V39.906H8.11074V39.7689L7.88545 39.7167C7.61117 39.6252 7.53607 39.5534 7.34343 39.351C7.22588 39.2824 7.10833 39.2138 6.98752 39.1485C6.41938 38.8155 5.90348 38.3486 5.42024 37.9012C5.30922 37.7967 5.19494 37.6955 5.08066 37.5943C3.08564 35.8474 1.64243 33.3953 0.786956 30.9072C-0.156679 28.0339 -0.205657 25.0005 0.395135 22.0521C0.937154 19.6065 2.142 17.2751 3.76153 15.3683C3.9052 15.1985 4.04233 15.0221 4.17947 14.8491C4.74435 14.1601 5.39085 13.5691 6.0896 13.0206C6.1647 12.9586 6.23653 12.8998 6.30837 12.841C6.96467 12.3055 7.66341 11.8517 8.38828 11.4174L8.54828 11.3227C10.8633 9.93174 10.8633 9.93174 11.7971 10.0493ZM9.50497 12.9781C8.16298 13.7618 6.95814 14.7446 5.90022 15.8809L5.7892 15.9984C5.70104 16.0931 5.61615 16.1943 5.53452 16.2923V16.4327L5.40718 16.4849C5.23739 16.5829 5.16555 16.6678 5.05454 16.8245L4.94679 16.9747L4.83577 17.1282C4.72476 17.2751 4.61048 17.4253 4.49619 17.5722L4.41783 17.6865V17.8269H7.76137C7.9834 17.3927 7.9834 17.3927 8.16299 16.9519L8.22502 16.7821L8.29033 16.6025C8.7148 15.4597 9.2307 14.3658 9.89026 13.3373L9.98495 13.1936L10.0633 13.0696C10.1352 12.939 10.1711 12.8182 10.2005 12.6712C9.93924 12.6712 9.727 12.8508 9.50497 12.9781ZM3.44481 19.4987C3.19665 19.7566 3.10523 20.0473 2.99095 20.3868C2.88973 20.6807 2.78851 20.968 2.66443 21.2521C2.54036 21.5525 2.48485 21.8431 2.43587 22.1631C2.38689 22.4145 2.30853 22.6496 2.22363 22.8912C2.18445 23.0806 2.21057 23.2145 2.25955 23.3973H2.11915C2.05384 24.0602 2.05384 24.0602 2.05058 24.723L2.11915 24.7915C2.25955 24.7981 2.39669 24.8013 2.53709 24.8013H3.0987C3.19992 24.8013 3.29788 24.8013 3.3991 24.8013C3.60807 24.8013 3.81704 24.8013 4.02601 24.8013C4.29375 24.8013 4.56476 24.8013 4.83251 24.8013C5.03821 24.8013 5.24392 24.8013 5.44962 24.8013C5.55085 24.8013 5.6488 24.8013 5.74676 24.8013C5.88716 24.8013 6.0243 24.8013 6.16143 24.8013H6.39979L6.57938 24.7915L6.64794 24.723C6.661 24.6087 6.66754 24.4977 6.67407 24.3834L6.69039 24.1679L6.70345 23.9295C6.79161 22.6757 6.9614 21.4219 7.23894 20.1942C7.27812 19.9591 7.27812 19.7371 7.27486 19.4987C6.73284 19.4856 6.19408 19.4791 5.65207 19.4758C5.46922 19.4726 5.28637 19.4693 5.10025 19.4661C4.83904 19.4628 4.57456 19.4595 4.31008 19.4563C4.22518 19.4563 4.14355 19.453 4.05866 19.4497C3.84642 19.4497 3.65378 19.453 3.44481 19.4987ZM9.22417 19.6358C9.18172 19.786 9.18172 19.786 9.1556 19.9852C9.13274 20.093 9.11315 20.2007 9.09029 20.3052L9.0152 20.6742L8.97928 20.857C8.87806 21.3599 8.87806 21.3599 8.80622 21.866L8.87806 22.0064H8.73766C8.70827 22.3035 8.67888 22.6006 8.6495 22.8977C8.6397 22.999 8.62664 23.1002 8.61684 23.2014C8.60378 23.3451 8.58746 23.492 8.5744 23.6389L8.54828 23.9034C8.52868 24.1777 8.52215 24.4454 8.52868 24.723L8.59725 24.7915C8.80296 24.7981 9.00867 24.8013 9.21437 24.7981H9.41028C9.62252 24.7981 9.83802 24.7981 10.0535 24.7981H10.4976C10.8894 24.7981 11.2812 24.7981 11.6698 24.7948C12.14 24.7948 12.6069 24.7948 13.0771 24.7948C13.7889 24.7948 14.504 24.7915 15.2158 24.7915V19.5673C14.9121 19.5052 14.6378 19.4889 14.3309 19.4889L14.1742 19.4856C13.9979 19.4856 13.8248 19.4856 13.6517 19.4856H13.2893C13.0379 19.4856 12.7832 19.4856 12.5318 19.4856C12.2085 19.4856 11.882 19.4824 11.5588 19.4824C11.3106 19.4824 11.0592 19.4824 10.811 19.4824C10.6902 19.4824 10.5727 19.4824 10.4519 19.4824C10.2853 19.4791 10.1188 19.4791 9.9523 19.4824C9.8772 19.4791 9.8772 19.4791 9.8021 19.4791C9.54742 19.4824 9.44293 19.4922 9.22417 19.6358Z" fill="#161616"/>
<path d="M29.1483 0.759775C30.2029 1.32138 31.0715 2.04625 31.7245 3.05846C32.1294 3.75394 32.3775 4.49187 32.4918 5.28857L32.4885 5.46489C32.4918 5.62815 32.5147 5.75876 32.5604 5.91549L32.74 5.86977C33.602 5.6706 34.5456 5.57264 35.4174 5.78488C35.535 5.82406 35.6492 5.86651 35.7635 5.91549L35.9725 6.00038C36.4949 6.23874 36.8933 6.54893 37.2981 6.96034L37.4222 7.08442C37.7096 7.39461 37.9218 7.74072 38.0622 8.14234C38.1308 8.49171 38.1667 8.83782 38.2026 9.18719L38.2483 9.42228C38.2777 9.74554 38.2255 10.0198 38.1536 10.3333L38.121 10.5031C37.9936 11.0941 37.7389 11.574 37.3667 12.0442H37.2263L37.1806 12.165C36.988 12.4915 36.6386 12.6842 36.3219 12.8801C36.0737 12.9977 35.819 13.0891 35.5545 13.1576L35.4305 13.1936C34.7905 13.3503 34.1309 13.3176 33.4746 13.3144H33.0697C32.7889 13.3144 32.5081 13.3144 32.2273 13.3111C31.8682 13.3111 31.5057 13.3111 31.1466 13.3111C30.869 13.3111 30.5915 13.3111 30.3139 13.3111C30.1801 13.3111 30.0495 13.3111 29.9156 13.3111C28.6487 13.3078 28.6487 13.3078 28.0316 13.2295V13.3666H27.8944L27.8716 13.4842C27.79 13.876 27.6724 14.2417 27.5222 14.6139L27.4602 14.7772C27.2904 15.1951 27.1108 15.6065 26.9182 16.0147L27.0586 15.9983C27.532 15.9526 27.9989 15.9363 28.4756 15.9396H28.6911C28.9164 15.9396 29.145 15.9396 29.3703 15.9396C29.5238 15.9396 29.6772 15.9428 29.8307 15.9428C30.2062 15.9428 30.5817 15.9428 30.9572 15.9461C30.8527 16.1649 30.7351 16.3412 30.5784 16.5273C30.3466 16.8146 30.1148 17.1052 29.8862 17.3958L29.7882 17.5199C29.5434 17.8334 29.3017 18.1468 29.0601 18.4603C28.7532 18.8586 28.443 19.2537 28.1295 19.6521C28.0316 19.7794 27.9304 19.91 27.8291 20.0374C27.2512 20.7786 27.2512 20.7786 26.9508 21.1214C26.7712 21.3271 26.6014 21.5459 26.4316 21.7581C26.3304 21.8855 26.2259 22.0128 26.1215 22.1369C25.9353 22.3589 25.759 22.5875 25.5827 22.816C25.3215 23.1491 25.057 23.4789 24.7893 23.8086L24.6195 24.0143L24.4791 24.1645H24.3419L24.2962 24.3115C24.1754 24.5694 23.9991 24.7523 23.8064 24.9515L23.5779 25.1931L23.4669 25.3106C23.2971 25.4935 23.1371 25.6861 22.9771 25.8788C22.8791 25.9767 22.8791 25.9767 22.6702 26.0453L22.7093 25.9147C22.7975 25.6241 22.8824 25.3302 22.9673 25.0363C23.1501 24.4094 23.3526 23.7858 23.5779 23.1719C23.9828 22.0781 24.3354 20.9647 24.6913 19.8545L24.7403 19.7043L24.7827 19.5737C24.8415 19.3843 24.9068 19.1982 24.9689 19.0088L21.5535 19.0807C21.609 18.7509 21.6384 18.604 21.7853 18.3297C21.9355 18.0489 22.0563 17.7615 22.1739 17.4644C22.3143 17.1085 22.4677 16.7559 22.6179 16.4032L23.0163 15.4563C23.1175 15.2212 23.2187 14.9829 23.3167 14.7478L23.3787 14.6041C23.5191 14.2678 23.6563 13.9315 23.7934 13.5919L23.8522 13.445L23.9926 13.0891L23.715 13.0923C22.8432 13.0989 21.9747 13.1021 21.1029 13.1087C20.6556 13.1087 20.2082 13.1119 19.7642 13.1152C19.3299 13.1185 18.8989 13.1217 18.4646 13.1217C18.3014 13.1217 18.1381 13.125 17.9748 13.125C16.9594 13.1381 16.1039 13.1152 15.1994 12.6189C15.0133 12.5046 14.8337 12.3838 14.6574 12.2532L14.5203 12.1552C14.0501 11.7961 13.753 11.2573 13.5211 10.7218C13.2697 10.0329 13.2012 9.33412 13.2959 8.60926C13.4232 7.90398 13.6746 7.264 14.1121 6.68933C14.2656 6.51628 14.4223 6.35302 14.5889 6.19303L14.7129 6.06242C15.0068 5.77508 15.3366 5.58897 15.699 5.40612L15.8362 5.33428C16.4304 5.04368 16.992 4.98818 17.6451 4.99471L17.8475 4.99797C18.2981 5.00124 18.7422 5.02409 19.1862 5.0796L19.2156 4.96532C19.5029 3.8519 19.898 3.01601 20.698 2.1736L20.858 2.0136L21.0147 1.85361C21.8833 1.02099 22.9869 0.505091 24.1395 0.191634C25.8407 -0.180595 27.581 -0.0206023 29.1483 0.759775Z" fill="#0046F8"/>
</svg>
